<svg viewBox="0 0 64 64" xmlns="http://www.w3.org/2000/svg">
    <rect x="8" y="12" width="48" height="44" rx="8" fill="#F5F7FA" />
    <rect x="8" y="12" width="48" height="12" rx="8" fill="#4F46E5" />
    <circle cx="20" cy="12" r="2.5" fill="#4F46E5" />
    <circle cx="44" cy="12" r="2.5" fill="#4F46E5" />
    <rect x="14" y="28" width="6" height="6" rx="1.5" fill="#CBD5F5" />
    <rect x="24" y="28" width="6" height="6" rx="1.5" fill="#CBD5F5" />
    <rect x="34" y="28" width="6" height="6" rx="1.5" fill="#6366F1" />
    <rect x="44" y="28" width="6" height="6" rx="1.5" fill="#CBD5F5" />
    <rect x="14" y="38" width="6" height="6" rx="1.5" fill="#CBD5F5" />
    <rect x="24" y="38" width="6" height="6" rx="1.5" fill="#6366F1" />
    <rect x="34" y="38" width="6" height="6" rx="1.5" fill="#CBD5F5" />
    <rect x="44" y="38" width="6" height="6" rx="1.5" fill="#CBD5F5" />
    <path d="M22 50L28 56L42 42" fill="none" stroke="#22C55E" stroke-width="3" stroke-linecap="round" stroke-linejoin="round" />
</svg>
